<svg aria-hidden="true" class="carousel-link-list-icon" focusable="false" viewBox="0 0 200 200" xmlns="http://www.w3.org/2000/svg"><defs><clipPath id="a"><path d="M0 150h150V0H0z"></path></clipPath></defs><g clip-path="url(#a)" fill="#fff" transform="matrix(1.33333 0 0 -1.33333 0 200)"><path d="M58.03 131.443c-11.4 0-19.675-8.274-19.675-19.676v-11.313c0-11.4 8.275-19.675 19.675-19.675 11.402 0 19.676 8.275 19.676 19.675v11.313c0 11.402-8.274 19.676-19.676 19.676m0-56.564c-14.58 0-25.576 10.995-25.576 25.575v11.313c0 14.582 10.996 25.577 25.576 25.577 14.582 0 25.577-10.995 25.577-25.577v-11.313c0-14.58-10.995-25.575-25.577-25.575M9.95 18.313A2.951 2.951 0 0 0 7 21.262v22.626C7 64.12 43.013 72.292 58.03 72.292c5.136 0 11.397-.792 17.629-2.23a2.948 2.948 0 0 0 2.21-3.537 2.962 2.962 0 0 0-3.536-2.212c-5.727 1.321-11.67 2.078-16.302 2.078-15.318 0-45.13-7.942-45.13-22.503V21.262a2.951 2.951 0 0 0-2.95-2.95m98.988 56.566c-15.526 0-28.16-12.633-28.16-28.16 0-15.529 12.634-28.162 28.16-28.162 15.527 0 28.16 12.633 28.16 28.161 0 15.528-12.633 28.161-28.16 28.161m0-62.223c-18.781 0-34.061 15.281-34.061 34.062 0 18.783 15.28 34.062 34.06 34.062 18.783 0 34.063-15.279 34.063-34.062 0-18.78-15.28-34.062-34.063-34.062"></path><path d="M108.939 26.797a2.951 2.951 0 0 0-2.95 2.95v33.94a2.95 2.95 0 0 0 5.9 0v-33.94a2.951 2.951 0 0 0-2.95-2.95"></path><path d="M125.91 43.768H91.97a2.951 2.951 0 0 0 0 5.9h33.94a2.95 2.95 0 0 0 0-5.9"></path></g></svg>