<svg aria-hidden="true" class="StyledLocationMarkerIcon-sc-t26om5 hPjICa" focusable="false" viewBox="0 0 48 64" xmlns="http://www.w3.org/2000/svg"><path d="M24 0C10.746 0 0 10.746 0 24s24 40 24 40 24-26.746 24-40C48 10.746 37.254 0 24 0z"></path><path d="M24.005 4.093c10.937 0 19.804 8.868 19.804 19.805 0 10.936-8.867 19.804-19.804 19.804-10.937 0-19.804-8.868-19.804-19.804 0-10.937 8.867-19.805 19.804-19.805z" fill="#fff"></path><path d="M21.04 33.892h-7.351V22.034H9.25L24.021 8.719l14.771 13.315h-4.438v11.858h-7.35v-8.876H21.04v8.876z"></path></svg>