<svg aria-hidden="true" class="carousel-link-list-icon" focusable="false" viewBox="0 0 200 200" xmlns="http://www.w3.org/2000/svg"><defs><clipPath id="a"><path d="M0 150h150V0H0z"></path></clipPath></defs><g clip-path="url(#a)" transform="matrix(1.33333 0 0 -1.33333 0 200)"><path d="M99.618 78.946c0-13.597-11.02-24.618-24.618-24.618-13.596 0-24.618 11.021-24.618 24.618 0 13.596 11.022 24.618 24.618 24.618 13.597 0 24.618-11.022 24.618-24.618z" fill="none" stroke="#fff" stroke-miterlimit="10"></path><path d="M69.377 74.322c0 .903-.347 1.64-1.04 2.208-.694.568-1.626.853-2.798.853h-2.813v-6.417h2.666c1.269 0 2.251.31 2.945.928.693.617 1.04 1.427 1.04 2.428M64.92 85.713h-2.194V79.71h2.341c.84 0 1.577.28 2.211.84.634.558.952 1.31.952 2.25 0 1.942-1.103 2.914-3.31 2.914m7.253-11.332c0-1.55-.5-2.845-1.501-3.884-1.197-1.237-2.972-1.856-5.327-1.856h-5.269V88.04h5.652c1.687 0 3.011-.51 3.973-1.53.844-.884 1.265-1.955 1.265-3.21 0-2.06-.863-3.463-2.589-4.209v-.029c1.02-.176 1.894-.688 2.62-1.53a4.655 4.655 0 0 0 1.176-3.15" fill="#fff"></path><path d="M69.377 74.322c0 .903-.347 1.64-1.04 2.208-.694.568-1.626.853-2.798.853h-2.813v-6.417h2.666c1.269 0 2.251.31 2.945.928.693.617 1.04 1.427 1.04 2.428zM64.92 85.713h-2.194V79.71h2.341c.84 0 1.577.28 2.211.84.634.558.952 1.31.952 2.25 0 1.942-1.103 2.914-3.31 2.914zm7.253-11.332c0-1.55-.5-2.845-1.501-3.884-1.197-1.237-2.972-1.856-5.327-1.856h-5.269V88.04h5.652c1.687 0 3.011-.51 3.973-1.53.844-.884 1.265-1.955 1.265-3.21 0-2.06-.863-3.463-2.589-4.209v-.029c1.02-.176 1.894-.688 2.62-1.53a4.655 4.655 0 0 0 1.176-3.15z" fill="none" stroke="#fff" stroke-miterlimit="10" stroke-width=".588"></path><path d="M88.334 78.531c0 2.12-.616 3.816-1.85 5.093-1.369 1.392-3.306 2.09-5.809 2.09h-2.349V70.965h2.319c2.661 0 4.646.755 5.958 2.268 1.154 1.314 1.731 3.08 1.731 5.297m2.737 0c0-2.905-.883-5.239-2.649-7.005-1.884-1.923-4.543-2.885-7.977-2.885h-4.768v19.4h4.768c3.493 0 6.171-.903 8.036-2.708 1.727-1.668 2.59-3.934 2.59-6.8" fill="#fff"></path><path d="M88.334 78.531c0 2.12-.616 3.816-1.85 5.093-1.369 1.392-3.306 2.09-5.809 2.09h-2.349V70.965h2.319c2.661 0 4.646.755 5.958 2.268 1.154 1.314 1.731 3.08 1.731 5.297zm2.737 0c0-2.905-.883-5.239-2.649-7.005-1.884-1.923-4.543-2.885-7.977-2.885h-4.768V88.04h4.768c3.493 0 6.171-.903 8.036-2.708 1.727-1.668 2.59-3.934 2.59-6.8z" fill="none" stroke="#fff" stroke-miterlimit="10" stroke-width=".588"></path><path d="M138.559 34.825a.768.768 0 0 0-.764-.764H12.205a.767.767 0 0 0-.762.764v5.366a.72.72 0 0 0 .053.272v.082l.165.183c.14.146.334.226.545.226h87.938V39.68c0-1.224.996-2.22 2.22-2.22 1.225 0 2.22.996 2.22 2.22v1.274h5.272V39.68c0-1.224.996-2.22 2.22-2.22 1.225 0 2.22.996 2.22 2.22v1.274h5.273V39.68c0-1.224.996-2.22 2.22-2.22 1.225 0 2.22.996 2.22 2.22v1.274h13.945l.223-.099.07-.04.059-.058a.802.802 0 0 0 .254-.566zM20.806 45.995v69.18a.77.77 0 0 0 .764.762h51.21v-1.274c0-1.225.996-2.22 2.22-2.22 1.225 0 2.22.995 2.22 2.22v1.274h51.213a.769.769 0 0 0 .762-.763V45.396H20.806zm120.48-1.958a5.174 5.174 0 0 1-3.491 1.36h-4.157v69.778a5.171 5.171 0 0 1-1.527 3.677 5.171 5.171 0 0 1-3.678 1.528H21.57a5.17 5.17 0 0 1-3.68-1.528 5.165 5.165 0 0 1-1.526-3.678V45.396h-4.158a5.161 5.161 0 0 1-3.67-1.535l-.211-.21A5.165 5.165 0 0 1 7 40.191v-5.366c0-1.387.543-2.692 1.529-3.678a5.168 5.168 0 0 1 3.677-1.527h125.589a5.17 5.17 0 0 1 3.679 1.526 5.17 5.17 0 0 1 1.526 3.68v5.365a5.168 5.168 0 0 1-1.527 3.677z" fill="#fff"></path></g></svg>