<svg aria-hidden="true" class="carousel-link-list-icon" focusable="false" viewBox="0 0 200 200" xmlns="http://www.w3.org/2000/svg"><defs><clipPath id="a"><path d="M0 150h150V0H0z"></path></clipPath></defs><g clip-path="url(#a)" fill="#fff" transform="matrix(1.33333 0 0 -1.33333 0 200)"><path d="M113.27 32.022a3.239 3.239 0 0 0-3.24 3.238v35.325a3.239 3.239 0 0 0 6.477 0V35.26a3.238 3.238 0 0 0-3.238-3.238m-14.719 0a3.239 3.239 0 0 0-3.24 3.238v58.875a3.24 3.24 0 0 0 6.478 0V35.259a3.238 3.238 0 0 0-3.238-3.238"></path><path d="M127.986 61.458a3.239 3.239 0 1 0 0 6.477c4.548 0 8.536 3.989 8.536 8.537v17.662c0 11.833-8.286 14.425-11.477 14.425h-23.55c-3.195 0-11.48-2.592-11.48-14.425V76.472c0-4.548 3.987-8.537 8.534-8.537a3.24 3.24 0 0 0 0-6.477c-8.137 0-15.012 6.876-15.012 15.014v17.662c0 15.227 11.014 20.902 17.957 20.902h23.551c6.941 0 17.955-5.675 17.955-20.902V76.472c0-8.138-6.874-15.014-15.014-15.014"></path><path d="M127.986 32.022a3.239 3.239 0 0 0-3.239 3.238v58.875a3.24 3.24 0 0 0 6.477 0V35.259a3.238 3.238 0 0 0-3.238-3.238m-14.51 108.919a5.806 5.806 0 0 1-5.8-5.798v-5.477a5.805 5.805 0 0 1 5.8-5.798h2.532c3.197 0 5.798 2.6 5.798 5.797v5.478a5.805 5.805 0 0 1-5.798 5.798zm2.532-23.55h-2.532c-6.77 0-12.277 5.506-12.277 12.275v5.477c0 6.769 5.508 12.276 12.277 12.276h2.532c6.769 0 12.276-5.507 12.276-12.276v-5.477c0-6.77-5.507-12.275-12.276-12.275"></path><path d="M136.82 2.583a3.239 3.239 0 0 0-3.239 3.239v26.199H92.958V5.822a3.24 3.24 0 0 0-6.478 0V35.26a3.239 3.239 0 0 0 3.238 3.239h47.101a3.239 3.239 0 0 0 3.24-3.239V5.822a3.239 3.239 0 0 0-3.24-3.239"></path><path d="M89.719 2.583a3.239 3.239 0 0 0-3.238 3.239v17.367H51.746V5.822a3.239 3.239 0 1 0-6.477 0v20.606a3.239 3.239 0 0 0 3.239 3.238h41.21a3.239 3.239 0 0 0 3.24-3.238V5.822a3.239 3.239 0 0 0-3.24-3.239"></path><path d="M48.507 2.583a3.239 3.239 0 0 0-3.239 3.239v5.593h-31.79V5.822a3.239 3.239 0 1 0-6.478 0v8.832a3.24 3.24 0 0 0 3.238 3.239h38.27a3.24 3.24 0 0 0 3.238-3.239V5.822a3.239 3.239 0 0 0-3.239-3.239"></path></g></svg>