<svg viewBox="0 0 811.005 315.27" class="StyledSVGSymbol-sc-grgj8 eSosEQ" xmlns="http://www.w3.org/2000/svg"><path d="M800.336 168.207l-30.955-51.288c-.295 30.12.611 60.277-.493 90.37-2.163 14.042-19.01 24.124-32.024 17.127-11.728-5.551-16.615-21.484-9.937-32.643 11.28-29.71 22.576-59.411 33.86-89.12l-14.149-23.451c-19.54 32.924-40.052 65.29-58.94 98.585-13.288 28.738-1.283 66.362 26.51 81.74 25.468 15.034 61.142 9.892 80.523-12.745 18.964-21.153 22.034-55.04 5.608-78.576z" fill="#e31837"></path><path d="M599.766 99.509l30.835 51.133c.3-30.087-.62-60.212.5-90.272 2.22-13.915 18.958-23.724 31.837-16.88 11.574 5.426 16.63 21.07 10.133 32.163-11.313 29.728-22.6 59.463-33.902 89.195l14.097 23.375c19.473-32.805 39.93-65.051 58.748-98.235 13.238-28.647 1.274-66.141-26.427-81.47-25.37-14.986-60.92-9.858-80.23 12.704-18.89 21.072-21.964 54.857-5.595 78.286z" fill="#f78f1d"></path><path d="M494.126 121.61v56.506c0 63.053.172 59.643-3.24 63.16-3.296 3.393-3.519 3.421-28.207 3.421h-21.846v-71.212h-31.02c-18.511 0-32.632.197-35.017.489-9.83 1.201-16.273 4.036-21.932 9.65-4.3 4.267-6.305 7.66-7.865 13.295-.993 3.585-1.028 4.647-1.286 39.997l-.266 36.313-1.225 3.35c-3.185 8.702-9.945 14.636-19.297 16.933-5.734 1.409-21.577 1.363-28.812-.084l-1.363-.275v9.934c0 9.051.074 9.952.826 10.167 1.825.53 8.615 1.35 14.222 1.72 9.568.627 20.86.228 25.127-.89 16.625-4.36 28.846-15.732 34.382-31.997 2.633-7.729 2.78-10.063 2.784-44.01 0-33.7.07-34.678 2.683-38.102.687-.9 2.391-2.154 3.87-2.848l2.645-1.24 17.568-.145 17.566-.143v70.836l38.79-.156c38.33-.154 38.835-.167 42.561-1.197 6.246-1.727 11.202-4.452 15.082-8.296 3.901-3.862 6.493-8.18 8.248-13.734l1.194-3.778.13-58.833.13-58.832h-13.216zM92.553 133.162c-3.296 0-4.088.177-6.287 1.393-2.995 1.66-4.537 3.38-6.12 6.818-3.119 6.788-.077 15.015 6.748 18.251 2.844 1.348 7.427 1.511 10.737.384 2.956-1.008 6.164-3.945 7.672-7.027 2.479-5.067 1.31-11.857-2.733-15.903-2.8-2.798-5.657-3.917-10.017-3.917zm-41.5.01c-3.163.007-4.162.213-6.174 1.266-10.079 5.28-10.168 19.839-.153 24.842 2.472 1.237 3.48 1.47 6.326 1.47 2.833 0 3.858-.235 6.274-1.442 1.587-.793 3.457-2.118 4.155-2.946 4.687-5.55 4.67-13.369-.039-18.605-3.052-3.395-5.776-4.597-10.39-4.586zm147.61 4.71c-16.45-.001-20.925.141-26.41.854-7.578.988-16.184 2.718-20.562 4.133-10.854 3.507-16.911 9.25-19.601 18.59-.715 2.474-.838 5.805-.986 26.528l-.171 23.697h72.569c50.335 0 73.418.158 75.345.514 8.418 1.556 12.486 6.666 12.486 15.69 0 9.715-3.58 14.5-11.855 15.842-1.983.322-32.2.489-89.186.49l-86.185.004v-70.809l-26.998.204c-24.89.186-27.405.279-32.195 1.183-19.78 3.747-33.78 13.27-40.591 27.611-5.914 12.453-5.745 29.24.414 41.078 2.094 4.025 6.415 9.008 10.245 11.821 8.314 6.103 21.697 9.785 39.136 10.767 1.427.08 53.952.119 116.721.086 126.545-.067 116.07.198 125.015-3.168 5.314-1.998 8.74-4.276 12.617-8.387 5.622-5.96 8.615-13.94 9.127-24.337.689-13.976-2.484-24.501-9.52-31.583-5.24-5.273-12.476-8.405-22.168-9.591-2.897-.357-24.056-.52-66.663-.522H156.83l.223-9.317c.126-5.236.472-10.1.787-11.112.795-2.53 3.663-5.214 6.85-6.406 6.117-2.29 9.809-2.585 32.796-2.614 11.802-.015 25.225.137 29.83.34l8.37.365v-19.712l-1.768-.275c-10.806-1.675-15.936-1.96-35.253-1.964zM559.203 140v126.392h26.41v-126.39h-13.205zM77.699 195.652v48.573l-11.201-.06c-12.325-.068-16.406-.406-22.03-1.826-12.22-3.086-18.645-10.656-18.645-21.97 0-10.583 6.961-19.122 18.395-22.563 5.224-1.57 11.27-2.148 22.518-2.152zm306.012 91.593a14.39 14.39 0 0 0-3.94.58c-3.902 1.134-7.859 5.092-8.995 8.995-2.392 8.23 2.302 16.536 10.234 18.116 7.009 1.394 14.29-2.991 16.268-9.803 2.696-9.273-4.565-17.942-13.567-17.888z" fill="#696a6d"></path></svg>